<svg width="32" height="32" viewBox="0 0 32 32" fill="none" xmlns="http://www.w3.org/2000/svg">
<path d="M22.6667 28L16 22.6667L9.33334 28M9.06667 22.6667H22.9333C25.1735 22.6667 26.2937 22.6667 27.1493 22.2307C27.9019 21.8472 28.5139 21.2353 28.8974 20.4826C29.3333 19.627 29.3333 18.5069 29.3333 16.2667V10.4C29.3333 8.15979 29.3333 7.03969 28.8974 6.18404C28.5139 5.43139 27.9019 4.81947 27.1493 4.43597C26.2937 4 25.1735 4 22.9333 4H9.06667C6.82646 4 5.70636 4 4.85071 4.43597C4.09806 4.81947 3.48614 5.43139 3.10265 6.18404C2.66667 7.03969 2.66667 8.15979 2.66667 10.4V16.2667C2.66667 18.5069 2.66667 19.627 3.10265 20.4826C3.48614 21.2353 4.09806 21.8472 4.85071 22.2307C5.70636 22.6667 6.82646 22.6667 9.06667 22.6667Z" fill="#7E7E7E"/>
</svg>
