<svg width="32" height="32" viewBox="0 0 32 32" fill="none" xmlns="http://www.w3.org/2000/svg">
<path d="M2.66667 25.3334C2.66667 24.2725 3.08809 23.2551 3.83824 22.5049C4.58838 21.7548 5.6058 21.3334 6.66667 21.3334C7.72753 21.3334 8.74495 21.7548 9.49509 22.5049C10.2452 23.2551 10.6667 24.2725 10.6667 25.3334C10.6667 26.3942 10.2452 27.4117 9.49509 28.1618C8.74495 28.9119 7.72753 29.3334 6.66667 29.3334C5.6058 29.3334 4.58838 28.9119 3.83824 28.1618C3.08809 27.4117 2.66667 26.3942 2.66667 25.3334ZM2.66667 25.3334V14.6667M6.66667 1.33337C19.9 1.33337 30.6667 12.1 30.6667 25.3334M24 25.3334C24 15.776 16.224 8.00004 6.66667 8.00004M17.3333 25.3334C17.3333 19.452 12.548 14.6667 6.66667 14.6667" stroke="#7E7E7E" stroke-width="2"/>
</svg>
