<svg width="32" height="32" viewBox="0 0 32 32" fill="none" xmlns="http://www.w3.org/2000/svg">
<path d="M27.8667 2.66663H4.13334C3.74435 2.66663 3.3713 2.82115 3.09625 3.0962C2.8212 3.37126 2.66667 3.74431 2.66667 4.13329V27.8666C2.66667 28.2556 2.8212 28.6287 3.09625 28.9037C3.3713 29.1788 3.74435 29.3333 4.13334 29.3333H16.9067V19H13.44V15H16.9067V12C16.8349 11.2956 16.918 10.5841 17.1503 9.91534C17.3826 9.24656 17.7584 8.63669 18.2513 8.12851C18.7442 7.62033 19.3424 7.22615 20.0038 6.97361C20.6652 6.72107 21.3738 6.6163 22.08 6.66663C23.1178 6.66024 24.155 6.71366 25.1867 6.82663V10.4266H23.0667C21.3867 10.4266 21.0667 11.2266 21.0667 12.3866V14.96H25.0667L24.5467 18.96H21.0667V29.3333H27.8667C28.0593 29.3333 28.25 29.2954 28.4279 29.2216C28.6059 29.1479 28.7676 29.0399 28.9038 28.9037C29.04 28.7675 29.148 28.6058 29.2217 28.4279C29.2954 28.25 29.3333 28.0592 29.3333 27.8666V4.13329C29.3333 3.94069 29.2954 3.74997 29.2217 3.57202C29.148 3.39408 29.04 3.2324 28.9038 3.0962C28.7676 2.96001 28.6059 2.85198 28.4279 2.77827C28.25 2.70456 28.0593 2.66663 27.8667 2.66663Z" fill="#7E7E7E"/>
</svg>
