<svg width="32" height="32" viewBox="0 0 32 32" fill="none" xmlns="http://www.w3.org/2000/svg">
<path d="M8 18.6666H18.6667V16H8V18.6666ZM8 14.6666H24V12H8V14.6666ZM8 10.6666H24V7.99996H8V10.6666ZM2.66666 29.3333V5.33329C2.66666 4.59996 2.928 3.9724 3.45066 3.45063C3.97333 2.92885 4.60089 2.66751 5.33333 2.66663H26.6667C27.4 2.66663 28.028 2.92796 28.5507 3.45063C29.0733 3.97329 29.3342 4.60085 29.3333 5.33329V21.3333C29.3333 22.0666 29.0724 22.6946 28.5507 23.2173C28.0289 23.74 27.4009 24.0008 26.6667 24H8L2.66666 29.3333ZM6.86666 21.3333H26.6667V5.33329H5.33333V22.8333L6.86666 21.3333Z" fill="#7E7E7E"/>
</svg>
