<svg width="32" height="32" viewBox="0 0 32 32" fill="none" xmlns="http://www.w3.org/2000/svg">
<g clip-path="url(#clip0_418_3504)">
<path d="M21.3333 4C22.0061 3.99979 22.6541 4.25388 23.1474 4.71133C23.6407 5.16878 23.9429 5.79579 23.9933 6.46667L24 6.66667V13.3333H26C26.4972 13.3334 26.9765 13.5186 27.3446 13.8528C27.7126 14.1871 27.9429 14.6465 27.9907 15.1413L28 15.3333V25.3333C28.0001 26.3536 27.6102 27.3354 26.9103 28.0777C26.2103 28.82 25.2532 29.2668 24.2347 29.3267L24 29.3333H6.66667C5.9939 29.3335 5.34591 29.0795 4.8526 28.622C4.35929 28.1646 4.05712 27.5375 4.00667 26.8667L4 26.6667V6.66667C3.99979 5.9939 4.25388 5.34591 4.71133 4.8526C5.16878 4.35929 5.79579 4.05712 6.46667 4.00667L6.66667 4H21.3333ZM25.3333 16H24V26.6667C24.3536 26.6667 24.6928 26.5262 24.9428 26.2761C25.1929 26.0261 25.3333 25.687 25.3333 25.3333V16ZM21.3333 6.66667H6.66667V26.6667H21.3333V6.66667ZM14.6667 17.3333C15.0065 17.3337 15.3334 17.4638 15.5805 17.6971C15.8276 17.9304 15.9763 18.2493 15.9962 18.5885C16.0161 18.9278 15.9058 19.2618 15.6876 19.5224C15.4695 19.783 15.1601 19.9505 14.8227 19.9907L14.6667 20H10.6667C10.3268 19.9996 9.99996 19.8695 9.75284 19.6362C9.50573 19.4029 9.35702 19.0841 9.3371 18.7448C9.31719 18.4056 9.42757 18.0715 9.64569 17.8109C9.86381 17.5503 10.1732 17.3828 10.5107 17.3427L10.6667 17.3333H14.6667ZM17.3333 10.6667C17.687 10.6667 18.0261 10.8071 18.2761 11.0572C18.5262 11.3072 18.6667 11.6464 18.6667 12C18.6667 12.3536 18.5262 12.6928 18.2761 12.9428C18.0261 13.1929 17.687 13.3333 17.3333 13.3333H10.6667C10.313 13.3333 9.97391 13.1929 9.72386 12.9428C9.47381 12.6928 9.33333 12.3536 9.33333 12C9.33333 11.6464 9.47381 11.3072 9.72386 11.0572C9.97391 10.8071 10.313 10.6667 10.6667 10.6667H17.3333Z" fill="white"/>
</g>
<defs>
<clipPath id="clip0_418_3504">
<rect width="32" height="32" fill="white"/>
</clipPath>
</defs>
</svg>
