<svg width="32" height="32" viewBox="0 0 32 32" fill="none" xmlns="http://www.w3.org/2000/svg">
<g clip-path="url(#clip0_418_3518)">
<path d="M26.6667 8C27.3739 8 28.0522 8.28095 28.5523 8.78105C29.0524 9.28115 29.3333 9.95942 29.3333 10.6667V25.7773C29.3333 26.4846 29.0524 27.1629 28.5523 27.663C28.0522 28.163 27.3739 28.444 26.6667 28.444H9.33332C8.62608 28.444 7.9478 28.163 7.44771 27.663C6.94761 27.1629 6.66666 26.4846 6.66666 25.7773V10.6667C6.66666 9.95942 6.94761 9.28115 7.44771 8.78105C7.9478 8.28095 8.62608 8 9.33332 8H26.6667ZM15.6427 18.592L9.51466 24.72L9.42666 24.8L9.33332 24.872V25.7787H26.6667V24.872L26.5733 24.8013L26.4853 24.7213L23.4987 21.7347L23.028 22.2067L23.1013 22.28C23.3405 22.5199 23.4793 22.8419 23.4896 23.1805C23.5 23.5191 23.381 23.849 23.157 24.103C22.9329 24.3571 22.6206 24.5164 22.2834 24.5485C21.9461 24.5807 21.6093 24.4832 21.3413 24.276L21.216 24.1653L15.6427 18.592ZM22.6667 4C23.3394 3.99979 23.9874 4.25388 24.4807 4.71133C24.974 5.16878 25.2762 5.79579 25.3267 6.46667L25.3333 6.66667H6.66666C6.34008 6.66671 6.02487 6.78661 5.78083 7.00362C5.53678 7.22063 5.38087 7.51967 5.34266 7.844L5.33332 8V24C4.66055 24.0002 4.01257 23.7461 3.51926 23.2887C3.02595 22.8312 2.72378 22.2042 2.67332 21.5333L2.66666 21.3333V8C2.6666 6.97972 3.05642 5.99798 3.75637 5.25565C4.45631 4.51332 5.41347 4.06652 6.43199 4.00667L6.66666 4H22.6667ZM26.6667 10.6667H9.33332V21.1307L14.464 16C14.6188 15.8452 14.8025 15.7224 15.0047 15.6386C15.207 15.5548 15.4238 15.5117 15.6427 15.5117C15.8616 15.5117 16.0783 15.5548 16.2806 15.6386C16.4828 15.7224 16.6666 15.8452 16.8213 16L21.1427 20.32L22.3213 19.1427C22.4761 18.9879 22.6598 18.8651 22.8621 18.7813C23.0643 18.6975 23.2811 18.6544 23.5 18.6544C23.7189 18.6544 23.9357 18.6975 24.1379 18.7813C24.3401 18.8651 24.5239 18.9879 24.6787 19.1427L26.6667 21.1307V10.6667ZM22 12.6667C22.2626 12.6667 22.5227 12.7184 22.7654 12.8189C23.008 12.9194 23.2285 13.0667 23.4142 13.2525C23.5999 13.4382 23.7472 13.6586 23.8477 13.9013C23.9483 14.144 24 14.404 24 14.6667C24 14.9293 23.9483 15.1894 23.8477 15.432C23.7472 15.6747 23.5999 15.8952 23.4142 16.0809C23.2285 16.2666 23.008 16.4139 22.7654 16.5144C22.5227 16.6149 22.2626 16.6667 22 16.6667C21.4696 16.6667 20.9608 16.456 20.5858 16.0809C20.2107 15.7058 20 15.1971 20 14.6667C20 14.1362 20.2107 13.6275 20.5858 13.2525C20.9608 12.8774 21.4696 12.6667 22 12.6667Z" fill="#7E7E7E"/>
</g>
<defs>
<clipPath id="clip0_418_3518">
<rect width="32" height="32" fill="white"/>
</clipPath>
</defs>
</svg>
